<?xml version="1.0" encoding="utf-8"?>
<!-- Generator: Adobe Illustrator 22.0.1, SVG Export Plug-In . SVG Version: 6.00 Build 0)  -->
<svg version="1.1" xmlns="http://www.w3.org/2000/svg" xmlns:xlink="http://www.w3.org/1999/xlink" x="0px" y="0px"
	 viewBox="0 0 1395.921 620.817" style="enable-background:new 0 0 1395.921 620.817;" xml:space="preserve">
<style type="text/css">
	.st0{display:none;}
	.st1{display:inline;}
	.st2{fill:url(#SVGID_1_);}
	.st3{display:inline;fill:url(#SVGID_2_);}
	.st4{fill:#FCFCFC;}
</style>
<g id="BG" class="st0">
	<g class="st1">
		<g>
			<radialGradient id="SVGID_1_" cx="841.8911" cy="-387.5024" r="1.4747" gradientUnits="userSpaceOnUse">
				<stop  offset="0" style="stop-color:#FBB03B"/>
				<stop  offset="1" style="stop-color:#F7931E"/>
			</radialGradient>
			<path class="st2" d="M841.891-386.002c1.93,0,1.934-3,0-3C839.961-389.002,839.958-386.002,841.891-386.002L841.891-386.002z"/>
		</g>
	</g>
	<radialGradient id="SVGID_2_" cx="784.8911" cy="309.4976" r="778.8453" gradientUnits="userSpaceOnUse">
		<stop  offset="0" style="stop-color:#FBB03B"/>
		<stop  offset="1" style="stop-color:#F7931E"/>
	</radialGradient>
	<rect x="-175.109" y="-230.502" class="st3" width="1920" height="1080"/>
</g>
<g id="Lines">
	<g>
		<path class="st4" d="M340.485,247.497c-5.18,0-9.378,4.199-9.378,9.378c0,5.18,4.199,9.379,9.378,9.379
			c5.18,0,9.379-4.199,9.379-9.379C349.864,251.696,345.665,247.497,340.485,247.497z"/>
		<path class="st4" d="M232.047,246.875c0-5.18-4.199-9.378-9.379-9.378c-5.18,0-9.378,4.199-9.378,9.378
			c0,5.18,4.199,9.379,9.378,9.379C227.848,256.254,232.047,252.055,232.047,246.875z"/>
		<path class="st4" d="M259.559,310.365c-2.51,2.257-0.885,8.156,3.629,13.176s15.578,8.183,15.578,8.183
			s-1.975-11.337-6.489-16.357C267.763,310.348,262.069,308.108,259.559,310.365z"/>
		<path class="st4" d="M285.478,33.436C127.813,33.436,0,161.249,0,318.914c0,110.707,63.019,206.692,155.139,254.049
			c0.588,0.31,1.169,0.584,1.756,0.884c1.409,0.712,2.821,1.42,4.244,2.109c57.073,27,103.973,4.761,106.36-52.133
			c-0.988-63.485-11.153-156.422-22.536-185.805c16.711,9.196,32.206,21.513,40.516,37.694
			c8.311-16.181,23.805-28.498,40.516-37.694c-11.384,29.385-21.549,122.332-22.535,185.817
			c2.394,56.885,49.29,79.12,106.359,52.121c1.426-0.691,2.841-1.4,4.253-2.114c0.582-0.298,1.159-0.57,1.743-0.877
			c92.122-47.357,155.142-143.342,155.142-254.051C570.956,161.249,443.144,33.436,285.478,33.436z M350.247,330.396
			c-2.585-1.338-5.163-2.564-7.717-3.694c-41.272,7.295-57.052,27.559-57.052,27.559s-15.78-20.264-57.052-27.559
			c-2.554,1.13-5.132,2.356-7.717,3.694c-28.516,14.759-47.175-2.488-42.598-8.467c0.069-0.084,0.159-0.172,0.264-0.262
			c0.016-0.013,0.033-0.026,0.05-0.038c3.356-2.771,51.537-20.707,54.659-22.626c11.43-7.023,17.777-27.305,18.768-50.271v-0.001
			c1.354-31.378-10.146-56.501-26.181-57.193c-8.071-0.36-15.516,5.538-21.1,15.473c0,0-9.054,16.404-10.018,28.881
			c0,0-1.811-10.238,6.91-31.418c-17.544-16.188-21.442-55.722,14.899-57.687c0.715-0.043,1.437-0.067,2.167-0.083
			c0.344-0.004,0.655-0.041,1.006-0.038c0.15,0.001,0.288,0.015,0.437,0.017c10.829,0.029,22.779,2.94,28.695,8.175
			c41.839,37.023,85.839,27.354,104.26,20.743c2.828-1.306,5.803-2.572,8.952-3.786c10.584-4.082,13.41,11.305,13.724,16.329
			c0.241,3.849-16.303,11.951-27.157,23.574c11.644,3.596,18.928,18.616,18.172,36.863c-0.71-17.206-8.806-30.554-20.809-32.407
			c-0.413-0.064-0.822-0.061-1.234-0.096c-0.812-0.069-1.622-0.093-2.427-0.055c-0.062,0.003-0.125,0.01-0.187,0.014
			c-0.842,0.048-1.68,0.147-2.512,0.308c-0.032,0.006-0.064,0.015-0.096,0.021c-0.854,0.169-1.702,0.394-2.54,0.677
			c-0.018,0.006-0.035,0.013-0.053,0.019c-0.846,0.289-1.684,0.633-2.509,1.033c-0.02,0.009-0.038,0.021-0.058,0.03
			c-0.818,0.399-1.626,0.851-2.419,1.355c-0.039,0.025-0.076,0.053-0.115,0.078c-0.77,0.495-1.527,1.035-2.269,1.624
			c-0.071,0.057-0.14,0.12-0.211,0.178c-0.704,0.569-1.396,1.174-2.07,1.824c-0.116,0.112-0.227,0.237-0.342,0.351
			c-0.621,0.616-1.233,1.256-1.826,1.939c-0.169,0.195-0.329,0.407-0.495,0.607c-0.527,0.632-1.049,1.275-1.55,1.957
			c-0.225,0.307-0.436,0.638-0.655,0.955c-0.426,0.614-0.853,1.226-1.256,1.876c-0.277,0.446-0.534,0.922-0.8,1.385
			c-0.324,0.562-0.654,1.113-0.962,1.699c-0.323,0.617-0.621,1.267-0.925,1.91c-0.225,0.474-0.461,0.932-0.675,1.42
			c-0.357,0.814-0.682,1.663-1.007,2.512c-0.135,0.353-0.285,0.691-0.414,1.05c-0.376,1.043-0.718,2.122-1.044,3.212
			c-0.058,0.193-0.127,0.375-0.183,0.57c-0.754,2.611-1.361,5.349-1.8,8.192c-0.05,0.32-0.075,0.636-0.12,0.956
			c-0.13,0.938-0.258,1.875-0.346,2.807c-0.05,0.522-0.07,1.038-0.107,1.558c-0.615,8.67,0.541,16.996,3.416,23.871
			c3.724,8.907,10.219,13.001,17.245,15.579c5.246,1.925,55.352,20.805,59.271,24.039c0.017,0.013,0.034,0.026,0.05,0.038
			c0.105,0.09,0.195,0.177,0.264,0.262C397.422,327.908,378.763,345.155,350.247,330.396z M197.183,246.875
			c1.218-28.189,17.975-47.737,27.836-47.737c0.108,0,0.217,0.001,0.325,0.006c9.927,0.429,24.034,19.859,22.805,48.355
			c-1.23,28.497-16.959,48.844-26.98,48.352C211.243,295.422,195.954,275.37,197.183,246.875z M363.085,260.358
			c-3.144,20.407-15.811,35.392-28.293,33.469c-12.481-1.923-20.051-20.026-16.906-40.433c3.144-20.407,15.811-35.392,28.293-33.469
			C358.66,221.848,366.229,239.95,363.085,260.358z"/>
		<path class="st4" d="M301.217,315.367c-4.514,5.02-6.489,16.357-6.489,16.357s11.064-3.164,15.578-8.183
			s6.139-10.918,3.629-13.176C311.425,308.108,305.731,310.348,301.217,315.367z"/>
	</g>
</g>
<g id="Layer_3">
	<g>
		<path class="st4" d="M621.609,453.446c0,18.9,7.479,30.301,24.533,30.301c16.755,0,24.235-11.4,24.235-30.301v-160.5h21.841
			v159.301c0,31.8-14.66,53.101-46.974,53.101c-32.014,0-46.674-21.301-46.674-53.101V292.945h23.038V453.446z"/>
		<path class="st4" d="M735.901,502.947h-20.944V292.945h29.621l48.469,151.801V292.945h20.645v210.001h-24.234l-53.556-169.802
			V502.947z"/>
		<path class="st4" d="M886.695,292.945c32.612,0,47.572,19.799,47.572,52.2v105.901c0,32.101-14.96,51.9-47.572,51.9h-49.067
			V292.945H886.695z M886.396,481.647c16.755,0,24.833-10.501,24.833-29.701V343.945c0-19.2-8.078-29.7-25.132-29.7h-25.133v167.402
			H886.396z"/>
		<path class="st4" d="M1030.609,385.946v21h-51.162v74.701h62.83v21.3h-86.168V292.945h86.168v21.299h-62.83v71.701H1030.609z"/>
		<path class="st4" d="M1110.491,292.945c32.911,0,46.675,16.8,46.675,48v17.101c0,23.101-8.079,37.5-26.03,43.2
			c19.148,5.7,26.329,21.301,26.329,43.801v32.7c0,9.3,0.299,18,4.188,25.2h-23.636c-2.693-6-3.89-11.4-3.89-25.5v-33.001
			c0-23.7-11.07-31.2-30.519-31.2h-16.455v89.701h-23.338V292.945H1110.491z M1104.506,391.946c18.551,0,29.621-6,29.621-28.801
			v-20.1c0-18.9-6.882-28.801-24.235-28.801h-22.738v77.701H1104.506z"/>
		<path class="st4" d="M1256.199,385.946v21h-51.162v74.701h62.831v21.3H1181.7V292.945h86.168v21.299h-62.831v71.701H1256.199z"/>
		<path class="st4" d="M1338.476,292.945c32.611,0,47.571,19.799,47.571,52.2v105.901c0,32.101-14.96,51.9-47.571,51.9h-49.068
			V292.945H1338.476z M1338.176,481.647c16.755,0,24.833-10.501,24.833-29.701V343.945c0-19.2-8.078-29.7-25.132-29.7h-25.133
			v167.402H1338.176z"/>
	</g>
	<g>
		<path class="st4" d="M732.994,66.048h52.2c33.001,0,49.201,18.3,49.201,51.9v106.201c0,33.601-16.2,51.9-49.201,51.9h-52.2V66.048
			z M765.994,96.048V246.05h18.601c10.5,0,16.8-5.4,16.8-20.4V116.448c0-15-6.3-20.4-16.8-20.4H765.994z"/>
		<path class="st4" d="M852.691,116.448c0-33.601,17.7-52.801,50.1-52.801c32.4,0,50.101,19.2,50.101,52.801v109.201
			c0,33.601-17.7,52.801-50.101,52.801c-32.399,0-50.1-19.2-50.1-52.801V116.448z M885.691,227.749c0,15,6.6,20.7,17.1,20.7
			c10.501,0,17.101-5.7,17.101-20.7V114.348c0-15-6.6-20.7-17.101-20.7c-10.5,0-17.1,5.7-17.1,20.7V227.749z"/>
		<path class="st4" d="M1047.39,164.148l-12,111.901h-45.301l-23.4-210.002h32.101l17.7,165.602l15.9-165.602h31.8l16.5,166.802
			l17.101-166.802h28.801l-23.4,210.002h-43.801L1047.39,164.148z"/>
		<path class="st4" d="M1172.487,123.948V276.05h-29.701V66.048h41.4l33.9,125.701V66.048h29.4V276.05h-33.9L1172.487,123.948z"/>
	</g>
	<g>
		<path class="st4" d="M716.239,532.913c10.971,0,15.658,6.5,15.658,17.101v8.4c0,11.101-5.187,16.901-16.256,16.901h-6.881v27.602
			h-7.779v-70.004H716.239z M715.641,568.314c5.784,0,8.577-2.7,8.577-9.4v-9.301c0-6.4-2.294-9.601-7.979-9.601h-7.479v28.302
			H715.641z"/>
		<path class="st4" d="M757.028,532.913c10.97,0,15.558,5.6,15.558,16.001v5.7c0,7.7-2.693,12.501-8.677,14.4
			c6.383,1.9,8.776,7.101,8.776,14.602v10.9c0,3.1,0.1,6,1.396,8.4h-7.879c-0.897-2-1.296-3.8-1.296-8.501v-11
			c0-7.9-3.69-10.4-10.173-10.4h-5.485v29.901h-7.779v-70.004H757.028z M755.034,565.915c6.184,0,9.874-2,9.874-9.601v-6.701
			c0-6.3-2.294-9.601-8.079-9.601h-7.579v25.902H755.034z"/>
		<path class="st4" d="M783.657,549.813c0-10.7,5.286-17.601,15.957-17.601c10.771,0,16.057,6.9,16.057,17.601v36.202
			c0,10.601-5.285,17.602-16.057,17.602c-10.671,0-15.957-7.001-15.957-17.602V549.813z M791.336,586.416
			c0,6.4,2.692,10.101,8.277,10.101c5.685,0,8.277-3.7,8.277-10.101v-37.002c0-6.301-2.593-10.101-8.277-10.101
			c-5.585,0-8.277,3.8-8.277,10.101V586.416z"/>
		<path class="st4" d="M833.921,586.416c0,6.301,2.493,10.101,8.178,10.101c5.585,0,8.078-3.8,8.078-10.101v-53.503h7.281v53.103
			c0,10.601-4.888,17.701-15.658,17.701c-10.671,0-15.559-7.101-15.559-17.701v-53.103h7.68V586.416z"/>
		<path class="st4" d="M884.984,532.913c10.87,0,15.857,6.6,15.857,17.4v35.303c0,10.7-4.987,17.301-15.857,17.301h-16.356v-70.004
			H884.984z M884.884,595.816c5.585,0,8.277-3.5,8.277-9.9v-36.002c0-6.4-2.692-9.901-8.377-9.901h-8.378v55.804H884.884z"/>
		<path class="st4" d="M911.613,602.917v-70.004h7.779v62.903h19.946v7.101H911.613z"/>
		<path class="st4" d="M954.896,577.815l-14.761-44.902h8.078l10.871,34.401l10.971-34.401h7.38l-14.86,44.902v25.102h-7.679
			V577.815z"/>
		<path class="st4" d="M1031.19,602.817h-7.479l-11.569-55.704v55.804h-6.781v-70.004h10.87l11.47,55.903l11.07-55.903h10.87v70.004
			h-7.38v-56.304L1031.19,602.817z"/>
		<path class="st4" d="M1068.989,588.816l-2.692,14.101h-7.181l13.364-70.004h11.27l13.363,70.004h-7.778l-2.693-14.101H1068.989z
			 M1069.986,582.115h15.559l-7.879-40.402L1069.986,582.115z"/>
		<path class="st4" d="M1123.043,532.913c10.871,0,15.857,6.6,15.857,17.4v35.303c0,10.7-4.986,17.301-15.857,17.301h-16.355
			v-70.004H1123.043z M1122.944,595.816c5.585,0,8.278-3.5,8.278-9.9v-36.002c0-6.4-2.693-9.901-8.378-9.901h-8.377v55.804H1122.944
			z"/>
		<path class="st4" d="M1174.505,563.915v7h-17.054v24.901h20.943v7.101h-28.723v-70.004h28.723v7.1h-20.943v23.902H1174.505z"/>
		<path class="st4" d="M1223.672,532.913c10.871,0,15.159,5.2,15.159,15.501v3.3c0,7.4-2.094,12.001-8.178,13.9
			c6.781,1.9,9.375,7.301,9.375,15.001v5.9c0,10.501-5.087,16.401-15.957,16.401h-16.058v-70.004H1223.672z M1221.778,562.614
			c6.183,0,9.374-2,9.374-9.3v-4.101c0-6.2-2.094-9.201-7.679-9.201h-7.68v22.602H1221.778z M1224.072,595.816
			c5.685,0,8.277-3,8.277-9.5v-6.201c0-7.8-3.092-10.4-9.773-10.4h-6.782v26.102H1224.072z"/>
		<path class="st4" d="M1261.472,577.815l-14.761-44.902h8.078l10.871,34.401l10.97-34.401h7.381l-14.86,44.902v25.102h-7.679
			V577.815z"/>
	</g>
	<g>
	</g>
	<g>
	</g>
	<g>
	</g>
	<g>
	</g>
	<g>
	</g>
	<g>
	</g>
	<g>
	</g>
	<g>
	</g>
	<g>
	</g>
	<g>
	</g>
	<g>
	</g>
	<g>
	</g>
	<g>
	</g>
	<g>
	</g>
	<g>
	</g>
</g>
</svg>
